<svg xmlns="http://www.w3.org/2000/svg" xmlns:xlink="http://www.w3.org/1999/xlink" version="1.1" x="0px" y="0px" viewBox="0 0 100 125" enable-background="new 0 0 100 100" xml:space="preserve"><polygon points="5.098,27.099 30.501,27.095 33.591,21.943 45.633,20.993 59.525,22.97 76.797,17.475 72.502,25.617 65.33,31.902   62.069,33.369 65.506,33.079 76.327,36.885 89.841,50.379 81.498,51.628 93.911,63.783 82.248,63.796 94.902,79.767 77.187,72.262   76.313,82.525 64.676,71.986 59.73,80.64 50.8,69.719 47.483,76.002 31.732,57.659 31.054,59.802 23.837,57.178 23.089,59.253   18.232,56.77 16.421,56.637 12.127,52.514 15.562,49.423 16.076,45.646 17.231,47.43 28.567,48.979 35.337,50.429 29.447,44.822   23.697,42.52 15.829,40.862 14.701,44.444 12.104,40.008 8.383,38.575 6.8,33.109 "/><text x="0" y="115" fill="#000000" font-size="5px" font-weight="bold" font-family="'Helvetica Neue', Helvetica, Arial-Unicode, Arial, Sans-serif">Created by m. turan ercan</text><text x="0" y="120" fill="#000000" font-size="5px" font-weight="bold" font-family="'Helvetica Neue', Helvetica, Arial-Unicode, Arial, Sans-serif">from the Noun Project</text></svg>